# xmcd
#
# Track frame offsets:
#	150
#	17150
#	31995
#	47759
#	65242
#	82824
#	101806
#	111119
#	122716
#	140953
#	158252
#	173098
#	191063
#	210831
#	221570
#	236120
#	254691
#	269928
#	288599
#	299681
#	316612
#	330691
#	346689
#
# Disc length: 4764
#
# Revision: 3
# Processed by: cddbd v1.5.1PL0 Copyright (c) Steve Scherf et al.
# Submitted via: VisiTrax 2.9.5.180 - For more info visit www.synapsa.com
# Normalized: r2:DSETVAR1
#
DISCID=66129a17
DTITLE=Various Artist - CDX Volume 1014
DYEAR=2001
DGENRE=Country
TTITLE0=Vince Vance and The Valiants - All I Want For Christmas Is You
TTITLE1=George Strait - Christmas Cookies
TTITLE2=Dale Watson/Danni Leigh - Christmas Love
TTITLE3=Rascal Flatt - God Rest Ye Merry Gentlemen
TTITLE4=Lee Greenwood - Have Your Self A Merry Little Christmas
TTITLE5=Alecia Elliott - If You Believe
TTITLE6=Aaron Tippin - Jingle Bell Rock
TTITLE7=Geezinslaws - Lighten Up It's Christmas
TTITLE8=Montgomery Gentry - Merry Christmas From The Family
TTITLE9=Michael McDonald - On Christmas Morning
TTITLE10=SHeDaisy - That's What I Want For Christmas
TTITLE11=3 Of Hearts - The Christmas Shoes
TTITLE12=Sonya Isaacs - The Christmas Song (Chestnuts Roasting On An Open Fire)
TTITLE13=Liz Anderson - The Little Christmas Angel
TTITLE14=Billy Gillman - Warm and Fuzzy
TTITLE15=Ronnie Milsap - We're Here To Love
TTITLE16=Sherrie Austin - Winter Wonderland
TTITLE17=Robert Earl Keen - Merry Christmas From The Family
TTITLE18=Dale Watson - Honky Tonk Christmas
TTITLE19=John Berry - Have Your Self A Merry Little Christmas
TTITLE20=Jack Franzen - Big Foot Rides With Santa
TTITLE21=John Sines Jr. - It's About The Baby
TTITLE22=Keith Bryant - Under The Christmas Tree Lights
EXTD=
EXTT0=
EXTT1=
EXTT2=
EXTT3=
EXTT4=
EXTT5=
EXTT6=
EXTT7=
EXTT8=
EXTT9=
EXTT10=
EXTT11=
EXTT12=
EXTT13=
EXTT14=
EXTT15=
EXTT16=
EXTT17=
EXTT18=
EXTT19=
EXTT20=
EXTT21=
EXTT22=
PLAYORDER=
